<svg width="256" height="256" viewBox="0 0 256 256" fill="none" xmlns="http://www.w3.org/2000/svg">
<path d="M196.614 229.754C196.82 226.857 197.027 223.96 197.341 218.691C197.654 213.422 198.068 205.87 202.989 182.889C207.91 159.909 217.325 121.73 222.538 101.183C227.75 80.6357 228.475 78.8768 228.951 77.2464C230.158 71.8474 230.995 69.1322 231.934 67.0911C232.146 66.6177 232.25 66.2038 232.356 65.4639" stroke="white" stroke-width="6" stroke-linecap="round"/>
<path d="M231.729 62.9557C231.936 62.9557 234.629 62.9557 238.859 62.6453C240.526 62.5229 241.122 61.7141 241.649 60.5666C242.882 57.8795 243.016 54.506 242.913 51.7924C242.84 49.8825 241.975 48.7464 241.038 47.9124C238.243 45.4265 233.83 44.5639 230.959 43.9369C228.37 43.3713 225.885 44.1407 224.372 45.18C219.882 48.2648 221.382 55.3149 221.641 57.298C224.502 60.228 228.067 62.5355 228.901 62.9526C229.321 63.1626 229.735 63.3695 230.475 63.8963" stroke="white" stroke-width="6" stroke-linecap="round"/>
<path d="M217.307 54.8821C214.823 52.399 209.819 49.1539 202.676 45.6063C199.302 43.9308 196.256 42.8864 193.314 42.0415C190.371 41.1965 187.578 40.6792 182.31 40.4127C177.043 40.1462 169.386 40.1462 164.045 40.3014C158.704 40.4566 155.911 40.767 153.23 41.2373C150.549 41.7076 148.066 42.3284 141.459 44.4071C134.851 46.4858 124.194 50.0036 115.29 52.4366C106.385 54.8696 99.5567 56.1112 93.1418 56.7508C86.727 57.3904 80.9329 57.3904 77.5343 57.2352C73.3078 56.7696 70.3857 55.4151 63.4739 51.1574C58.6314 47.9343 51.0785 42.5541 43.2966 37.0109" stroke="white" stroke-width="6" stroke-linecap="round"/>
<path d="M43.2966 37.0109C43.0896 39.9236 42.566 47.9312 42.2541 57.323C42.0241 64.2473 41.105 68.3515 40.583 74.1126C40.1747 78.6186 40.2679 86.392 40.1111 90.9586C39.9543 95.5252 39.7474 96.6633 39.6408 99.0603C39.5342 101.457 39.5342 105.079 39.5342 108.81" stroke="white" stroke-width="6" stroke-linecap="round"/>
<path d="M39.5342 108.81C40.155 110.258 42.2337 113.798 45.5712 118.703C49.7981 124.915 52.7966 127.088 56.7612 129.597C59.1058 131.08 61.1584 132.425 63.6557 133.362C67.3164 134.736 71.3921 135.353 75.6608 135.615C81.3676 135.965 85.6139 135.046 92.1463 133.384C97.7078 131.969 107.991 130.067 115.699 128.277C123.407 126.486 128.27 125.038 135.896 123.516C143.523 121.994 153.766 120.442 161.63 119.642C169.493 118.843 174.666 118.843 177.59 118.894C182.088 118.974 183.959 119.363 186.411 120.094C190.757 120.931 192.632 121.661 194.406 122.235C195.146 122.498 195.56 122.705 195.986 122.918" stroke="white" stroke-width="6" stroke-linecap="round"/>
<path d="M215.66 57.704C215.557 59.049 215.454 60.3941 214.107 65.536C212.76 70.6779 210.174 79.5759 206.927 93.213C203.68 106.85 199.852 124.956 197.725 135.888C195.598 146.819 195.287 150.026 194.869 152.765C194.45 155.504 193.933 157.677 192.942 165.314C191.951 172.952 190.503 185.988 189.757 193.584C188.839 202.923 188.7 207.44 188.23 211.982C187.768 216.439 187.132 221.643 187.024 227.442C186.985 229.526 187.951 229.826 188.582 229.986C189.731 230.146 190.782 230.25 191.773 230.458C192.246 230.563 192.66 230.667 193.086 230.773" stroke="white" stroke-width="6" stroke-linecap="round"/>
<path d="M147.19 181.638C146.294 183.943 145.397 186.247 144.04 188.907C142.682 191.566 140.889 194.511 138.67 197.468C136.45 200.425 133.858 203.305 132.458 204.821C131.059 206.337 130.931 206.401 131.905 206.674C132.879 206.947 134.96 207.428 139.632 208.139C144.304 208.85 151.506 209.779 155.84 210.257C160.174 210.735 161.422 210.735 162.609 210.655C164.892 210.501 166.134 210.25 166.568 210.186C167.368 210.068 168.777 209.734 170.263 209.188C170.918 208.947 170.981 208.066 171.128 206.551C171.274 205.036 171.402 202.731 171.436 200.856C171.47 198.981 171.406 197.604 170.877 194.735C170.348 191.866 169.356 187.545 168.845 185.255C168.333 182.965 168.333 182.837 168.333 182.705" stroke="white" stroke-width="6" stroke-linecap="round"/>
<path d="M168.333 182.705C171.726 184.433 174.434 185.388 176.129 185.469C177.342 185.527 179.438 185.005 181.991 184.374C182.939 184.14 183.2 184.16 183.38 184.208C183.933 184.356 184.526 184.868 185.159 185.58C185.587 186.062 185.5 186.936 185.244 188.147C184.755 190.456 183.178 191.331 181.757 192.336C181.307 192.653 180.631 192.883 179.405 193.32C176.406 194.387 174.284 194.958 173.704 195.006C173.381 195.023 172.996 195.023 172.543 194.991C172.089 194.959 171.577 194.895 171.049 194.829" stroke="white" stroke-width="6" stroke-linecap="round"/>
<path d="M148.645 180.183C152.515 180.604 154.526 180.41 155.14 180.361C155.303 180.348 155.463 180.313 155.625 180.409C156.904 181.161 157.436 183.316 158.017 183.851C158.536 184.329 160.048 183.744 162.062 182.761C163.148 182.195 164.364 181.491 166.095 181.144C167.826 180.797 170.034 180.829 172.31 180.862" stroke="white" stroke-width="6" stroke-linecap="round"/>
<path d="M168.43 180.086C168.494 180.086 169.391 179.99 171.405 179.701C173.981 179.33 175.83 178.73 176.684 178.295C178.409 177.417 179.32 175.924 180.196 174C181.003 172.226 180.296 170.907 180.071 170.455C179.543 169.396 177.813 169.001 177.016 168.434C176.044 167.742 174.742 165.297 174.218 163.892C174.092 163.554 173.479 161.836 172.671 159.3C172.253 157.987 171.795 157.362 171.375 156.797C171.054 156.364 170.631 156.099 169.411 155.697C168.431 155.374 166.655 155.007 165.509 154.777C163.893 154.452 162.971 154.385 161.78 154.256C161.01 154.172 159.886 154.254 158.812 154.399C157.739 154.543 156.747 154.799 155.516 155.235C154.284 155.671 152.844 156.279 151.894 156.705C149.334 157.851 147.904 159.393 147.498 159.943C147.03 160.578 146.579 161.748 145.964 163.107C144.892 165.477 145.025 166.89 144.991 168.055C144.949 169.494 145.667 171.606 145.976 172.744C146.233 173.69 147.63 175.64 148.899 177.076C149.285 177.398 149.925 177.91 150.367 178.286C150.808 178.662 151.032 178.886 151.263 179.116" stroke="white" stroke-width="6" stroke-linecap="round"/>
<path d="M156.404 167.09C156.436 167.794 156.468 168.498 156.516 169.053C156.565 169.608 156.629 169.992 156.694 170.27C156.759 170.547 156.823 170.708 156.889 170.872" stroke="white" stroke-width="6" stroke-linecap="round"/>
<path d="M166.685 167.381C166.717 167.445 166.749 167.509 166.861 168.022C166.974 168.535 167.166 169.495 167.363 170.485" stroke="white" stroke-width="6" stroke-linecap="round"/>
<path d="M133.223 154.093C141.865 154.733 150.507 155.374 157.759 155.447C165.011 155.521 170.613 155.009 173.562 154.713C176.645 154.404 176.931 154.191 177.238 154.03C178.572 153.611 180.841 152.962 181.505 152.672C181.652 152.606 181.78 152.574 181.912 152.542" stroke="white" stroke-width="6" stroke-linecap="round"/>
<path d="M171.922 154.287C171.25 153.455 170.578 152.623 168.743 150.498C166.909 148.373 163.932 144.98 162.078 142.768C160.225 140.557 159.585 139.628 159.063 138.718C157.487 135.969 157.665 135.118 157.456 134.811C157.386 134.707 157.214 134.919 156.108 137.434C155.002 139.949 152.922 144.813 151.77 147.624C150.382 151.012 150.293 151.797 150.277 152.103C150.196 152.992 150.068 153.992 149.858 154.831C149.776 155.19 149.744 155.414 149.711 155.742" stroke="white" stroke-width="6" stroke-linecap="round"/>
<path d="M159.701 210.347C159.701 210.411 159.701 210.475 159.669 212.732C159.637 214.99 159.573 219.439 159.588 222.082C159.607 225.432 160.022 226.7 160.41 227.573C160.559 227.908 160.669 227.997 160.847 228.046C162.405 228.481 164.386 225.998 165.095 224.408C165.623 223.223 165.932 221.058 166.179 219.378C166.457 216.513 166.522 215.165 166.571 214.907C166.587 214.777 166.587 214.649 166.587 214.517" stroke="white" stroke-width="6" stroke-linecap="round"/>
<path d="M141.661 213.062C141.053 214.983 140.445 216.903 140.116 218.517C139.787 220.13 139.755 221.378 139.818 222.341C139.925 223.957 140.463 225.148 140.915 225.989C141.083 226.302 141.239 226.317 141.529 226.333C142.266 226.375 143.528 226.03 144.821 225.401C145.343 225.147 145.473 224.804 146.34 223.695C147.206 222.587 148.775 220.666 149.727 219.421C151.679 216.432 152.62 214.778 152.814 214.391C152.911 214.227 153.007 214.131 153.106 214.032" stroke="white" stroke-width="6" stroke-linecap="round"/>
</svg>
