<svg width="512" height="256" viewBox="0 0 512 256" fill="none" xmlns="http://www.w3.org/2000/svg">
<path d="M27.4114 180.127C29.373 181.715 31.3346 183.303 36.2216 185.615C41.1087 187.928 48.8617 190.917 56.7322 193.344C64.6027 195.772 72.3557 197.546 80.0861 198.788C87.8164 200.029 95.2892 200.683 103.342 200.739C111.395 200.796 119.802 200.235 124.367 199.9C129.403 199.53 132.588 198.347 136.973 196.65C140.437 195.31 142.515 194.942 144.12 194.471C146.191 193.863 147.61 193.057 149.732 192.348C150.956 191.939 152.422 191.642 156.17 190.235C159.141 189.12 164.401 187.52 166.862 186.561C169.324 185.601 168.857 185.414 166.561 184.758C160.17 182.929 153.772 181.545 150.003 180.98C148.376 180.736 147.355 180.416 147.06 180.131C146.634 179.722 152.756 177.129 162.454 172.8C167.147 170.705 171.217 168.47 172.961 167.13C174.705 165.79 173.957 165.323 171.237 164.568C163.846 162.787 158.567 161.541 157.673 161.211C157.245 161.068 156.872 160.975 155.638 160.596" stroke="white" stroke-width="6" stroke-linecap="round"/>
<path d="M26.5622 178.428C25.345 177.027 21.7671 172.314 19.3512 168.862C18.9183 168.244 18.6422 167.961 20.0391 167.723C24.4748 166.968 31.1506 167.199 36.0136 166.967C37.4559 166.898 36.6731 165.895 35.1672 164.622C31.4777 161.505 27.802 158.999 25.4936 157.633C21.9855 155.558 19.4913 153.615 19.0625 153.146C22.2087 151.917 25.6111 151.164 27.2628 150.737C27.7822 150.689 28.436 150.689 29.1097 150.689" stroke="white" stroke-width="6" stroke-linecap="round"/>
<path d="M156.204 157.765C156.204 155.795 156.017 152.025 155.734 146.958C155.535 143.39 155.638 137.781 155.544 134.006C155.451 130.232 155.264 128.457 154.514 124.507C153.764 120.557 152.456 114.485 151.456 110.657C149.555 103.387 147.905 102.104 146.679 100.311C145.318 98.3204 143.194 94.8521 141.585 92.4814C141.114 91.7299 140.46 90.5156 139.983 89.7499C139.506 88.9842 139.226 88.704 138.937 88.4153" stroke="white" stroke-width="6" stroke-linecap="round"/>
<path d="M138.937 88.4153C137.813 88.9757 133.024 93.1028 127.653 98.5191C123.715 102.49 121.679 105.857 120.265 107.979C117.628 111.417 114.407 116.15 113.984 117.139C113.748 117.568 113.467 117.848 113.179 118.42" stroke="white" stroke-width="6" stroke-linecap="round"/>
<path d="M113.179 118.42C112.992 118.42 109.906 117.766 105.097 116.775C102.742 116.29 101.579 116.251 94.7981 115.875C88.5778 115.685 76.7148 115.498 70.4167 115.449C64.1186 115.399 63.7449 115.493 63.0769 115.589" stroke="white" stroke-width="6" stroke-linecap="round"/>
<path d="M62.7939 115.589C62.4203 114.468 61.9476 112.863 61.1961 110.606C60.2922 107.891 57.6224 103.355 54.6064 98.1229C52.7113 95.2257 51.4772 93.3321 49.8807 91.0747C48.8447 89.8448 47.3501 88.4436 45.8103 87" stroke="white" stroke-width="6" stroke-linecap="round"/>
<path d="M45.8104 87C44.8763 88.8682 42.6203 93.6604 39.8378 99.7901C38.5208 102.691 37.9837 104.352 35.1744 111.558C32.7425 117.797 28.6286 129.414 26.4632 135.614C24.3912 143.417 24.6742 145.118 24.8625 145.918C24.9573 146.344 25.0507 146.811 25.1469 147.292" stroke="white" stroke-width="6" stroke-linecap="round"/>
<path d="M165.403 185.93C167.832 183.314 171.605 180.752 176.968 178.492C182.696 176.078 187.655 175.553 190.574 175.27C194.534 174.886 196.999 176.017 200.017 177.526C202.386 178.71 204.647 179.697 205.919 180.686C207.688 182.061 207.579 185.352 207.814 187.901C207.676 191.294 205.241 197.875 201.37 202.848C199.866 204.215 197.531 206.083 194.559 208.574" stroke="white" stroke-width="6" stroke-linecap="round"/>
<path d="M207.862 176.306C209.926 174.902 213.325 171.318 214.09 167.968C214.431 166.472 212.306 164.898 209.817 163.483C203.932 160.137 200.231 163.845 197.306 165.026C194.773 166.047 193.245 168.935 191.734 170.685C191.354 171.111 190.981 171.578 190.695 172.006C190.409 172.433 190.222 172.807 190.313 174.041" stroke="white" stroke-width="6" stroke-linecap="round"/>
<path d="M234.044 167.698C230.936 166.566 228.49 166.94 226.408 167.836C223.558 169.062 221.883 174.282 221.071 176.514C220.765 177.355 221.49 178.823 222.431 180.471C223.906 183.056 228.173 184.014 231.25 184.634C234.548 185.298 238.182 182.802 240.497 180.964C243.97 178.206 244.228 174.882 244.893 171.579C245.157 170.271 244.237 169.119 243.205 167.943C242.453 167.328 241.239 166.674 239.446 166.337C237.653 166 235.317 166 232.911 166" stroke="white" stroke-width="6" stroke-linecap="round"/>
<path d="M197.903 206.781C194.356 208.202 182.211 212.959 177.394 215.126C172.229 217.45 169.405 220.017 166.774 221.569C164.809 222.728 162.243 224.073 160.097 225.739C157.096 228.069 157.579 232.18 156.686 234.571C156.033 236.231 155.549 237.795 155.311 238.986C155.192 239.585 155.073 240.176 154.236 241.858" stroke="white" stroke-width="6" stroke-linecap="round"/>
<path d="M48.6483 199.981C47.2309 201.398 45.8135 202.815 43.1345 205.849C40.4554 208.882 36.5576 213.489 33.7819 217.397C31.0062 221.306 29.4707 224.377 27.1729 228.257" stroke="white" stroke-width="6" stroke-linecap="round"/>
<path d="M155.667 119.09C156.498 118.854 161.473 117.665 165.976 117.477C167.555 117.412 168.785 119.083 169.857 120.334C171.337 122.06 171.416 130.236 170.171 135.843C168.925 137.093 166.896 138.174 164.041 138.89C162.486 139.134 160.714 139.134 158.889 139.134" stroke="white" stroke-width="6" stroke-linecap="round"/>
<path d="M163.542 140.207C163.66 145.168 163.778 150.129 163.957 152.921C164.136 155.713 164.372 156.185 164.258 156.547C164.143 156.908 163.671 157.144 162.11 157.746" stroke="white" stroke-width="6" stroke-linecap="round"/>
<path d="M165.332 156.314C167.458 156.55 169.025 156.79 169.623 157.264C169.919 157.499 169.512 158.211 169.095 158.692C168.678 159.174 168.088 159.528 167.488 159.711C166.889 159.893 166.298 159.893 165.689 159.893" stroke="white" stroke-width="6" stroke-linecap="round"/>
<path d="M157.815 128.396C160.181 128.868 164.612 130.3 165.267 131.252C165.887 132.153 166.047 134.345 165.103 137.677C164.158 139.356 162.268 141.009 161.058 141.979C159.848 142.949 159.376 143.185 158.531 143.787" stroke="white" stroke-width="6" stroke-linecap="round"/>
<path d="M431.467 153.514C433.409 160.085 435.35 166.657 437.77 174.747C440.189 182.837 443.026 192.246 444.712 197.84C447.457 207.064 448.059 209.472 449.489 212.864C449.869 213.848 450.168 214.894 450.476 215.971" stroke="white" stroke-width="6" stroke-linecap="round"/>
<path d="M429.657 152.156C427.095 141.307 425.593 137.085 422.802 129.411C421.09 124.703 421.216 118.398 420.01 112.147C419.073 107.293 418.053 101.204 414.898 92.8557C411.193 83.0518 406.435 76.8907 403.581 73.2836C396.09 63.8147 388.508 61.3488 383.133 59.156C379.312 57.597 371.336 57.5652 363.83 59.3642C355.085 61.4602 348.101 71.6769 343.448 77.5424C340.522 81.2316 337.347 85.001 334.849 88.2551C332.387 91.4615 328.44 91.9528 325.048 93.4645C320.852 95.3343 317.578 96.9313 315.087 98.0673C311.829 99.5524 309.431 101.91 306.94 105.745C304.717 109.167 304.743 112.772 304.892 114.503C305.245 118.599 310.011 122.122 312.729 124.464C314.804 126.253 317.252 127.707 322.299 130.647C325.478 132.499 330.051 135.845 333.772 138.569C334.749 139.176 336.243 139.773 337.311 140.156C338.379 140.538 338.976 140.687 339.592 141.294" stroke="white" stroke-width="6" stroke-linecap="round"/>
<path d="M335.971 139.484C339.117 141.28 345.159 145.204 347.956 147.997C350.229 150.267 350.603 153.206 350.755 154.41C350.831 155.012 350.608 155.614 349.859 156.295C346.433 159.41 342.479 158.791 336.304 158.198C325.376 157.149 323.163 152.464 319.472 150.432C317.794 149.508 314.908 148.409 312.998 148.092C311.088 147.775 310.192 148.372 309.506 148.904C307.036 150.82 306.707 155.306 306.777 166.218C306.816 172.262 314.509 177.61 318.386 180.59C321.479 181.57 327.63 183.973 334.566 186.236C337.17 187.005 337.917 187.005 338.687 187.005" stroke="white" stroke-width="6" stroke-linecap="round"/>
<path d="M339.139 187.005C339.89 188.2 342.289 193.613 343.287 197.924C345.008 205.359 343.212 209.761 342.086 218.503C341.855 221.085 341.556 222.601 341.103 224.554C340.95 225.76 340.95 227.403 340.95 229.096" stroke="white" stroke-width="6" stroke-linecap="round"/>
<path d="M449.118 213.255C453.318 214.609 468.923 215.817 477.016 214.769C480.03 214.379 483.044 210.703 489.15 208.134C490.985 207.362 492.259 206.774 493.164 206.765C498.436 206.713 492.268 216.849 491.965 226.421C490.761 230.295 489.254 233.305 486.995 235.577C486.239 235.885 485.343 235.885 484.42 235.885" stroke="white" stroke-width="6" stroke-linecap="round"/>
<path d="M308.282 118.519C310.269 118.402 312.285 118.284 316.39 117.494C319.528 116.89 324.701 115.361 327.525 114.639C330.35 113.916 330.642 113.916 330.821 114.033C332.221 114.943 330.886 119.33 329.943 122.373C329.11 125.062 328.291 126.482 327.348 127.689C326.936 128.132 326.294 128.716 325.846 129.105C325.398 129.493 325.164 129.669 324.924 129.849" stroke="white" stroke-width="6" stroke-linecap="round"/>
<path d="M351.656 89.8397C349.552 94.1629 348.527 96.8573 348.82 97.5946C348.952 97.927 349.464 97.923 349.85 97.8363C350.633 97.6602 351.473 96.8077 352.387 95.603C353.132 92.5572 352.778 91.3215 352.572 90.1725C352.482 89.6662 352.424 89.3157 352.364 88.9545" stroke="white" stroke-width="6" stroke-linecap="round"/>
<path d="M308.808 147.989C308.587 149.319 308.365 150.648 308.214 151.851C308.063 153.053 307.989 154.087 307.913 155.152" stroke="white" stroke-width="6" stroke-linecap="round"/>
<path d="M303.14 137.703C299.383 136.48 293.912 135.721 291.353 136.096C289.021 136.438 287.017 140.33 285.406 143.164C283.796 145.997 283.892 148.731 283.657 150.762C283.457 152.485 283.795 154.115 284.405 155.291C286.313 158.969 291.71 159.685 295.385 160.251C298.446 160.723 300.963 160.067 302.281 159.316C305.206 155.649 307.009 149.52 306.727 145.468C306.539 143.752 306.259 142.724 305.97 141.382" stroke="white" stroke-width="6" stroke-linecap="round"/>
<path d="M287.288 159.498C286.541 164.169 285.794 168.839 285.362 171.666C284.93 174.492 284.837 175.333 284.695 176.046C284.554 176.759 284.367 177.32 283.892 178.746" stroke="white" stroke-width="6" stroke-linecap="round"/>
<path d="M296.912 162.329C296.632 163.832 295.503 166.094 294.557 168.311C293.414 170.992 292.293 173.731 291.349 175.862C290.875 177.609 290.498 179.214 290.122 180.155C289.932 180.629 289.745 181.096 289.553 181.577" stroke="white" stroke-width="6" stroke-linecap="round"/>
<path d="M284.741 177.614C281.837 177.988 277.291 179.12 276.304 180.433C275.63 181.331 274.851 182.868 275.025 183.965C275.375 186.171 282.989 186.763 291.289 187.189C294.262 187.341 294.733 186.961 295.254 186.443C296.434 185.269 297.193 184.127 297.664 183.423C297.923 183.036 297.948 182.438 297.81 181.869C295.044 179.601 290.504 178.37 288.998 178.228C288.239 178.18 287.492 178.18 286.722 178.463" stroke="white" stroke-width="6" stroke-linecap="round"/>
<path d="M209.244 202.067C227.459 202.721 245.674 203.375 260.288 203.852C274.903 204.329 285.365 204.609 291.128 204.66C297.639 204.718 298.969 204.332 300.051 204.238C301.076 204.15 304.324 203.672 311.699 203.671C316.273 203.67 322.531 204.043 326.315 204.047C330.1 204.052 331.22 203.771 332.312 203.627C333.403 203.483 334.43 203.483 335.489 203.483" stroke="white" stroke-width="6" stroke-linecap="round"/>
<path d="M348.955 24.8013C349.104 24.5026 349.254 24.2039 350.003 23.3032C350.752 22.4026 352.096 20.909 355.402 17.974C358.708 15.039 363.936 10.7077 369.322 6.24518" stroke="white" stroke-width="6" stroke-linecap="round"/>
<path d="M347.145 25.7064C345.945 27.648 341.442 42.3436 339.077 49.8339C338.109 52.9015 338.247 56.0117 338.018 59.1119C337.491 62.2031 336.889 65.5251 336.287 67.2563C335.984 68.0913 335.685 68.8381 335.377 69.6075" stroke="white" stroke-width="6" stroke-linecap="round"/>
<path d="M150.722 81.3747C150.722 79.2747 151.02 74.4592 153.727 60.1732C157.127 42.2255 156.298 38.0892 156.68 35.6724C157.132 32.8182 157.357 29.4901 157.361 21.8142C155.41 17.5734 151.491 12.4547 147.492 7.24311C146.653 6.24968 146.205 5.80161 145.743 5.33997" stroke="white" stroke-width="6" stroke-linecap="round"/>
<path d="M322.31 22.9211C320.463 22.6994 318.616 22.4778 306.769 21.8096C294.921 21.1414 273.129 20.0333 255.993 19.8688C238.857 19.7042 227.037 20.5168 220.468 20.8616C213.899 21.2063 212.939 21.0586 211.114 20.9825C206.634 20.7955 203.299 21.0541 202.256 21.3149C201.509 21.5018 197.51 21.8734 191.766 22.3581C189.42 22.6211 187.638 22.6972 185.252 22.7711C184.343 22.8449 184.048 22.9927 183.52 23.1449" stroke="white" stroke-width="6" stroke-linecap="round"/>
<path d="M181.505 23.1449C181.505 25.4349 181.505 27.725 181.32 35.5163C181.136 43.3075 180.766 56.5307 180.65 64.1552C180.533 71.7797 180.681 73.4049 180.979 75.1655C181.277 76.9261 181.72 78.7729 181.911 81.8666C182.103 84.9603 182.029 89.2449 181.954 91.7476C181.861 94.8434 181.803 98.8482 181.952 104.219C182.177 107.755 182.324 109.992 182.809 111.525C182.922 111.863 182.996 112.159 183.072 112.463" stroke="white" stroke-width="6" stroke-linecap="round"/>
<path d="M322.758 22.6972C321.871 27.7205 320.971 32.3028 319.967 38.0581C319.314 41.8039 318.742 47.2855 317.882 52.6501C317.022 58.0148 315.988 63.112 315.382 66.4027C314.217 72.7203 314.327 74.1033 314.177 77.8999C313.803 79.9974 313.73 81.7905 313.618 82.6467C313.58 83.0598 313.58 83.4291 313.58 83.8097" stroke="white" stroke-width="6" stroke-linecap="round"/>
<path d="M182.848 112.687C182.55 115.436 182.105 118.722 181.916 120.924C181.867 121.486 181.805 122.004 181.988 122.344C182.172 122.684 182.615 122.832 188.495 123.056C194.374 123.28 205.677 123.575 224.427 124.245C243.177 124.914 269.032 125.948 295.671 127.014" stroke="white" stroke-width="6" stroke-linecap="round"/>
<path d="M183.711 142.799C187.963 143.035 192.215 143.271 199.721 143.452C207.227 143.633 217.857 143.751 225.814 144.048C238.745 144.531 244.551 145.54 245.979 145.957C248.985 146.835 253.127 146.85 256.062 147.153C258.868 147.452 262.197 147.688 265.651 148.046C267.215 148.168 268.396 148.168 269.613 148.168" stroke="white" stroke-width="6" stroke-linecap="round"/>
<path d="M313.947 83.0721C313.216 85.849 312.766 87.7545 312.656 88.8031C312.618 90.0343 312.691 91.0773 312.802 92.654C312.839 93.8653 312.839 95.9114 312.839 98.0195" stroke="white" stroke-width="6" stroke-linecap="round"/>
<path d="M335.759 67.4604C335.576 68.4469 335.393 69.4334 334.97 71.6407C334.547 73.8479 333.89 77.2459 333.514 79.1061C333.094 81.1912 332.954 81.594 332.771 82.3458C332.032 85.3186 331.664 87.0138 331.459 88.033C331.441 88.2373 331.441 88.42 331.33 88.6082" stroke="white" stroke-width="6" stroke-linecap="round"/>
<path d="M308.431 121.193C308.431 123.262 308.431 125.214 307.951 126.668C306.572 130.842 298.89 127.242 297.466 126.642C296.871 126.566 296.271 126.492 295.602 126.38C295.228 126.342 294.785 126.342 294.328 126.342" stroke="white" stroke-width="6" stroke-linecap="round"/>
<path d="M151.101 80.056C151.131 80.9263 151.013 82.6181 151.231 85.4122C151.315 86.4895 151.276 87.9366 151.117 89.4466C150.958 90.9567 150.64 92.4881 150.375 93.985C149.861 96.8899 149.7 98.6456 149.685 99.1412C149.642 99.4634 149.699 99.8136 149.859 100.279C149.933 100.514 149.991 100.745 150.05 101.159" stroke="white" stroke-width="6" stroke-linecap="round"/>
<path d="M183.805 142.532C181.898 142.532 179.991 142.532 178.662 142.59C177.333 142.648 176.639 142.763 174.982 142.808C173.324 142.853 170.724 142.825 168.044 142.795" stroke="white" stroke-width="6" stroke-linecap="round"/>
<path d="M271.091 148.769C272.754 148.676 274.997 148.629 277.259 148.652C278.135 148.675 278.458 148.721 278.994 148.745C279.531 148.769 280.27 148.769 281.451 148.909" stroke="white" stroke-width="6" stroke-linecap="round"/>
<path d="M341.71 203.205C339.152 203.716 337.25 203.98 336.237 203.962C335.808 203.943 335.552 203.907 335.347 203.851C335.142 203.796 334.996 203.723 334.735 203.648" stroke="white" stroke-width="6" stroke-linecap="round"/>
<path d="M202.533 202.513H207.516" stroke="white" stroke-width="6" stroke-linecap="round"/>
<path d="M217.643 49.5224C217.643 49.2887 216.183 48.4673 213.444 47.4343C211.249 46.6065 208.921 47.8636 206.83 49.2463C204.845 50.5588 203.429 52.6984 202.133 54.7883C200.976 56.6528 201.119 58.7777 201.559 60.5445C201.982 62.245 203.943 63.501 206.003 64.7384C209.612 66.9068 212.382 65.8697 215.212 64.6358C217.051 63.8337 218.522 61.6917 219.584 59.1893C219.945 56.8622 219.536 54.7839 218.712 53.0755C218.297 52.3019 217.888 51.7176 216.935 50.7617" stroke="white" stroke-width="6" stroke-linecap="round"/>
<path d="M211.081 66.8996C211.139 66.8996 211.197 66.8996 213.495 66.7263C215.793 66.5529 220.33 66.2062 225.179 65.6738" stroke="white" stroke-width="6" stroke-linecap="round"/>
<path d="M212.833 66.9873C212.804 66.9873 212.775 66.9873 211.46 66.9873C210.145 66.9873 207.544 66.9873 205.901 66.9439C202.91 66.7246 202.502 66.6668 201.589 66.5792C200.85 66.5494 199.549 66.5494 198.21 66.5494" stroke="white" stroke-width="6" stroke-linecap="round"/>
<path d="M210.206 68.7385C209.917 70.5878 209.277 72.7252 208.287 74.9537C207.817 76.0108 207.297 76.8643 206.567 77.6432C205.837 78.422 204.884 79.0866 204.104 79.5879C203.323 80.0892 202.745 80.4071 202.014 80.672C201.283 80.9368 200.416 81.1391 199.436 81.3475" stroke="white" stroke-width="6" stroke-linecap="round"/>
<path d="M207.754 78.6331C207.812 78.6331 208.94 79.211 211.672 80.809C213.336 81.7817 215.445 83.2739 216.793 84.1482C218.14 85.0225 218.631 85.2826 219 85.5032C219.368 85.7239 219.599 85.8973 220.013 86.3386" stroke="white" stroke-width="6" stroke-linecap="round"/>
<path d="M276.855 66.1594C273.274 65.7209 269.931 65.6047 267.296 65.8621C265.408 66.0465 264.201 66.7462 263.17 67.6287C261.908 68.7102 260.952 70.2849 259.978 72.7999C259.326 74.4825 258.674 77.1053 258.298 78.9167C257.731 81.6454 258.031 82.8396 258.435 83.3722C259.132 84.2925 261.264 85.674 263.864 87.1129C265.808 88.1889 266.664 88.1553 269.955 87.9184C271.206 87.8283 272.727 87.3515 273.883 86.944C275.833 86.2566 277.18 85.1348 278.305 84.1223C279.207 83.3097 279.51 82.0723 279.97 80.5836C280.61 78.5128 280.84 76.0989 280.951 74.1269C280.511 71.7741 279.554 70.0059 278.45 68.4774C277.858 67.7527 277.2 67.1315 276.412 66.4916" stroke="white" stroke-width="6" stroke-linecap="round"/>
<path d="M274.641 87.5286C277.637 87.0171 280.203 86.7901 282.283 87.0647C284.486 87.3555 285.747 88.3757 286.262 88.8534C287.596 90.0893 287.374 92.0616 287.172 93.006C286.859 94.1686 285.83 95.7132 283.801 97.1022C283.353 97.3087 283.098 97.3452 282.834 97.3829" stroke="white" stroke-width="6" stroke-linecap="round"/>
<path d="M272.094 89.1895C266.54 91.7471 262.985 93.2474 261.769 93.4694C260.031 92.9573 258.662 92.0704 257.982 90.9892C257.558 90.1273 256.974 88.6292 256.261 87.0858" stroke="white" stroke-width="6" stroke-linecap="round"/>
<path d="M274.198 87.6394C275.586 94.2893 276.448 98.117 276.669 98.8173C276.961 99.7403 276.855 101.761 276.947 103.045C276.966 103.249 276.966 103.468 276.948 103.654C276.929 103.84 276.893 103.986 276.855 104.248" stroke="white" stroke-width="6" stroke-linecap="round"/>
<path d="M276.855 104.248C273.128 103.042 269.401 101.836 267.353 101.197C265.306 100.557 265.05 100.521 264.498 100.794C263.105 101.652 262.02 102.51 261.633 103.062C261.466 103.358 261.356 103.687 261.243 104.137" stroke="white" stroke-width="6" stroke-linecap="round"/>
<path d="M275.526 104.137C277.244 104.977 278.961 105.818 281.417 107.109C283.873 108.401 287.015 110.118 288.962 111.112C290.91 112.107 291.568 112.326 292.356 112.662" stroke="white" stroke-width="6" stroke-linecap="round"/>
<path d="M302.331 114.03C302.257 114.03 302.183 114.03 294.425 113.956C286.668 113.882 271.228 113.735 262.942 113.622C254.656 113.509 253.991 113.435 246.262 112.879C238.532 112.324 223.757 111.29 215.888 110.683C206.582 109.966 204.963 109.629 203.467 109.516C201.356 109.356 198.113 108.586 195.188 108.025C192.57 107.688 191.379 107.538 190.073 107.352C189.662 107.314 189.145 107.314 187.941 107.091" stroke="white" stroke-width="6" stroke-linecap="round"/>
</svg>
